<?xml version="1.0" encoding="utf-8"?>
<!-- Svg Vector Icons : http://www.onlinewebfonts.com/icon -->
<!DOCTYPE svg PUBLIC "-//W3C//DTD SVG 1.1//EN" "http://www.w3.org/Graphics/SVG/1.1/DTD/svg11.dtd">
<svg version="1.1" xmlns="http://www.w3.org/2000/svg" xmlns:xlink="http://www.w3.org/1999/xlink" x="0px" y="0px" viewBox="0 0 256 256" enable-background="new 0 0 256 256" xml:space="preserve">
<metadata> Svg Vector Icons : http://www.onlinewebfonts.com/icon </metadata>
<g><g><path fill="#000000" d="M54.5,43l67.8,67.8c0.6,0.6,1.5,0.6,2.1,0c0.7-0.6,1.3-1.3,2-1.9c14.7-14.7,21.1-34,18.7-51.1c-0.7-4.6,0.9-9.2,4.2-12.5l0,0c7.9-7.9,7.9-20.7,0-28.6l-0.8-0.8c-7.9-7.9-20.7-7.9-28.6,0l0,0c-3.3,3.3-7.9,4.8-12.5,4.2C90.3,17.7,71,24.1,56.3,38.8c-0.6,0.7-1.3,1.3-1.9,2C53.9,41.4,53.9,42.4,54.5,43C54.5,42.9,54.5,42.9,54.5,43L54.5,43z"/><path fill="#000000" d="M173.1,229.8h-3.9c-1.3-7.4-6.3-7.2-14.1-7.2h-76c-7.8,0-15.8-0.2-17.1,7.2h-3.9c-5.8,0-10.5,4.7-10.5,10.5v0.8c0,5.8,4.7,4.7,10.5,4.7h114.9c5.8,0,10.5,1.1,10.5-4.7v-0.8C183.7,234.6,178.9,229.8,173.1,229.8L173.1,229.8z"/><path fill="#000000" d="M116.3,231.6H115c-8.4,0-15.3-6.9-15.3-15.3l0,0c0-8.4,6.9-15.3,15.3-15.3h1.3c8.4,0,15.3,6.9,15.3,15.3l0,0C131.6,224.8,124.7,231.6,116.3,231.6z"/><path fill="#000000" d="M126.5,203.8l-0.7-0.7c-2.4-2.1-2.6-5.7-0.5-8l72.3-82.3c2.1-2.4,5.7-2.6,8-0.5l0.7,0.7c2.4,2.1,2.6,5.7,0.5,8l-72.3,82.3C132.5,205.6,128.9,205.8,126.5,203.8L126.5,203.8z"/><path fill="#000000" d="M194.5,108.3L194.5,108.3c-2.8,2-6.7,1.3-8.6-1.5l-32.5-46.7c-2-2.8-1.3-6.7,1.5-8.6l0,0c2.8-2,6.7-1.3,8.6,1.5l32.5,46.6C198,102.5,197.3,106.4,194.5,108.3z"/></g></g>
</svg>