<?xml version="1.0" encoding="utf-8"?>
<!-- Svg Vector Icons : http://www.onlinewebfonts.com/icon -->
<!DOCTYPE svg PUBLIC "-//W3C//DTD SVG 1.1//EN" "http://www.w3.org/Graphics/SVG/1.1/DTD/svg11.dtd">
<svg version="1.1" xmlns="http://www.w3.org/2000/svg" xmlns:xlink="http://www.w3.org/1999/xlink" x="0px" y="0px" viewBox="0 0 256 256" enable-background="new 0 0 256 256" xml:space="preserve">
<metadata> Svg Vector Icons : http://www.onlinewebfonts.com/icon </metadata>
<g><g><path fill="#000000" d="M246,118.6c0-11.6-8.3-21.2-19.3-23.2l-46.9-54.3c0.1-0.9,0.2-1.8,0.2-2.7c0-13-10.6-23.6-23.6-23.6c-7.7,0-14.5,3.7-18.9,9.4l-43.7,4c-3.2-10.1-12.4-17.6-23.6-18c-0.8-0.1-1.7-0.1-2.3,0C53.9,10.7,43,22.1,43,36v23.5c-19.6,12-33,36.1-33,59.6c0,1.2,0.4,2.3,1.2,3.1c1.4,1.6,14.6,15.2,57.8,15.2c43.7,0,56.6-13.7,57.9-15.3c0.7-0.8,1.1-1.9,1.1-3.1c0-23.6-13.5-47.6-33-59.6v-3l42.6-3.9c4.3,5.7,11.1,9.3,18.8,9.3c1.3,0,2.6-0.1,3.8-0.3l40.7,47.3c-1.3,3-2.1,6.2-2.1,9.7c0,4.3,1.2,8.4,3.2,11.8l-51.1,77.9h-33c-12.6,0-22.9,10.6-22.9,23.6v9.4c0,2.6,2.1,4.7,4.7,4.7h127.4c2.6,0,4.7-2.1,4.7-4.7v-9.4c0-13-10.3-23.6-22.9-23.6h-24.3l43.5-66.8C238.4,138.9,246,129.6,246,118.6z M52.5,36c0-8.8,6.9-16,15.9-16.4c0.3,0,0.5,0,0.5-0.1c0.2,0,0.7,0.1,0.9,0.1c8.1,0.3,14.6,6.4,15.7,14.1c0,0.1,0,0.2,0,0.3c0.1,0.7,0.1,1.3,0.1,2v16.2c0,0,0,0.1,0,0.1v8.9c-10.3,1-22.8,1-33,0L52.5,36L52.5,36z M118.5,117c-3.8,2.9-17.2,11-49.5,11c-32.3,0-45.7-8-49.5-11c0.7-18.1,10.9-36.9,25.3-47.4c7.3,1.1,15.5,1.7,24.2,1.7s16.9-0.6,24.2-1.7C107.6,80.1,117.8,98.9,118.5,117z M95,47v-9.5l38.1-3.5c-0.3,1.4-0.4,2.8-0.4,4.3c0,1.8,0.2,3.5,0.6,5.2L95,47z M156.3,52.5c-5.2,0-9.8-2.8-12.2-7c0-0.1-0.1-0.2-0.2-0.3c-1.1-2-1.8-4.4-1.8-6.9c0-2.6,0.7-5.1,2-7.2c0,0,0.1-0.1,0.1-0.2c2.5-4.1,7-6.8,12.1-6.8c7.8,0,14.2,6.4,14.2,14.2c0,1-0.1,2-0.3,2.9c0,0.1-0.1,0.3-0.1,0.4C168.6,47.9,163,52.5,156.3,52.5z M169.4,57.9c2.6-1.8,4.9-4,6.6-6.7l38.8,44.9c-3.1,1-5.9,2.7-8.3,4.9L169.4,57.9z M208.9,217.7c7.4,0,13.5,6.4,13.5,14.2v4.7h-118v-4.7c0-7.8,6-14.2,13.5-14.2h35.5c0,0,0.1,0,0.1,0h22.3c0,0,0.1,0,0.1,0H208.9z M173.4,208.2h-11.2l46.4-70.6c2.5,1.8,5.3,3.1,8.3,3.9L173.4,208.2z M224.5,132.5c-0.7,0.1-1.4,0.2-2.1,0.2c-7.8,0-14.2-6.4-14.2-14.2c0-7.8,6.4-14.2,14.2-14.2c0.4,0,0.8,0,1.2,0c0.1,0,0.3,0,0.4,0c7,0.8,12.5,6.8,12.5,14.1C236.5,125.6,231.3,131.5,224.5,132.5C224.6,132.5,224.5,132.5,224.5,132.5z"/></g></g>
</svg>